<svg width="24" height="24" viewBox="0 0 24 24" fill="none" xmlns="http://www.w3.org/2000/svg">
<circle cx="12" cy="12" r="12" fill="#BECAD6"/>
<path d="M11.9989 6.24707C10.4927 6.24707 9.27162 7.46813 9.27162 8.97434C9.27162 10.4806 10.4927 11.7016 11.9989 11.7016C13.5051 11.7016 14.7262 10.4806 14.7262 8.97434C14.7262 7.46813 13.5051 6.24707 11.9989 6.24707ZM10.0728 12.4175C8.6468 12.8072 7.63525 14.0472 7.63525 15.5198V16.6107C7.63525 16.912 7.87945 17.1562 8.18071 17.1562H15.8171C16.1183 17.1562 16.3625 16.912 16.3625 16.6107V15.5198C16.3625 14.0472 15.351 12.8072 13.925 12.4175C13.8028 12.3841 13.6827 12.3995 13.5671 12.4516C13.0677 12.6767 12.5361 12.7925 11.9989 12.7925C11.4617 12.7925 10.9301 12.6767 10.4307 12.4516C10.3151 12.3995 10.195 12.3841 10.0728 12.4175Z" fill="white"/>
</svg>
