<svg width="30" height="30" viewBox="0 0 30 30" fill="none" xmlns="http://www.w3.org/2000/svg">
<path fill-rule="evenodd" clip-rule="evenodd" d="M14.5458 22.4897C15.0125 22.1341 15.5554 21.8964 16.1171 21.7266C20.6787 20.3475 24 16.1116 24 11.1C24 4.96963 19.0304 0 12.9 0C6.76968 0 1.80005 4.96963 1.80005 11.1C1.80005 14.9427 3.75278 18.3294 6.72009 20.3219C7.34557 20.7419 7.89261 21.2817 8.22292 21.9588C9.20696 23.9761 11.7904 24.589 13.5758 23.2288L14.5458 22.4897Z" fill="#401CE0"/>
<circle cx="12.9331" cy="16.8261" r="0.913043" fill="white"/>
<path d="M14.7363 6.91207C14.0654 6.58118 13.3113 6.45669 12.5696 6.55434C11.8279 6.65199 11.1318 6.96739 10.5693 7.46067C10.2041 7.78092 9.90592 8.16681 9.68866 8.59588C9.49342 8.98149 9.74807 9.41626 10.1656 9.52813L10.4175 9.59564C10.835 9.70751 11.2543 9.4432 11.5199 9.10222C11.5953 9.00534 11.6801 8.91533 11.7733 8.83359C12.0643 8.57845 12.4243 8.41531 12.808 8.3648C13.1916 8.31429 13.5816 8.37868 13.9287 8.54983C14.2757 8.72098 14.5643 8.9912 14.7577 9.32632C14.9512 9.66144 15.041 10.0464 15.0157 10.4325C14.9904 10.8187 14.8511 11.1886 14.6156 11.4956C14.38 11.8026 14.0587 12.0329 13.6922 12.1573C13.3912 12.2611 13.3102 12.2611 12.9999 12.2611L12.739 12.2611C12.3068 12.2611 11.9564 12.6115 11.9564 13.0437V14.3481C11.9564 14.7803 12.3068 15.1307 12.739 15.1307H12.9999C13.4321 15.1307 13.7825 14.7803 13.7825 14.3481C13.7825 14.1566 13.9213 13.9946 14.1052 13.9413C14.1615 13.925 14.2194 13.9068 14.2792 13.8864C14.9877 13.646 15.6089 13.2008 16.0643 12.6073C16.5197 12.0138 16.7889 11.2985 16.8379 10.552C16.8868 9.80545 16.7132 9.06118 16.3392 8.41328C15.9651 7.76538 15.4073 7.24296 14.7363 6.91207Z" fill="white"/>
</svg>
