<svg width="17" height="16" viewBox="0 0 17 16" fill="none" xmlns="http://www.w3.org/2000/svg">
<path d="M12.6838 10.3439C13.4746 9.2673 13.9416 7.9382 13.9416 6.5C13.9416 2.91015 11.0315 0 7.44165 0C3.8518 0 0.94165 2.91015 0.94165 6.5C0.94165 10.0899 3.8518 13 7.44165 13C8.88023 13 10.2097 12.5327 11.2864 11.7415L11.2855 11.7422C11.315 11.7822 11.3479 11.8204 11.3841 11.8566L15.2345 15.7071C15.6251 16.0976 16.2582 16.0976 16.6488 15.7071C17.0393 15.3166 17.0393 14.6834 16.6488 14.2929L12.7983 10.4424C12.7621 10.4062 12.7238 10.3734 12.6838 10.3439ZM12.9416 6.5C12.9416 9.53757 10.4792 12 7.44165 12C4.40408 12 1.94165 9.53757 1.94165 6.5C1.94165 3.46243 4.40408 1 7.44165 1C10.4792 1 12.9416 3.46243 12.9416 6.5Z" fill="#6C6C6C"/>
</svg>
